<?xml version="1.0" encoding="utf-8"?>
<!-- Generator: Adobe Illustrator 24.1.0, SVG Export Plug-In . SVG Version: 6.00 Build 0)  -->
<svg version="1.1" id="Layer_1" xmlns="http://www.w3.org/2000/svg" xmlns:xlink="http://www.w3.org/1999/xlink" x="0px" y="0px"
	 viewBox="0 0 1280 720" style="enable-background:new 0 0 1280 720;" xml:space="preserve">
<style type="text/css">
	.st0{fill:#0BBDC6;}
</style>
<g>
	<path class="st0" d="M696,333c9,0,18,0,27,0c7.8,0.6,13.9,8.4,13,16.1c-0.2,4.9-3.7,8.6-7.2,11.6c4.2,2.6,7.3,7.2,7.3,12.2
		c0.4,7.2-5.5,14.8-13,14.5c-5.5-0.1-11,0.2-16.5-0.1c-6-1.4-10.9-7.2-10.5-13.5C696,360.3,696,346.6,696,333 M706.3,336.4
		c1.9,2.3,3.9,4.8,4.5,7.8c1,4.8,0.4,9.7,0.5,14.5c3.5,1.1,7.3,2.4,9.3,5.6c4.6,5.8,2.3,13.6,2.8,20.3c5.4-1,8.9-5.7,9.2-10.8
		c-0.5-4.3-1.8-8.9-5.9-10.8c-2.3-1.4-6.3-0.2-6.6-3.7c4.6-0.4,9.6-2.2,11.6-6.8c3.3-6.3-0.7-15-7.7-16.2
		C718.1,336.1,712.2,336.5,706.3,336.4 M698.8,336.1c0,4.3-0.2,8.7,0,13c0.4,4.9,4.7,8.6,9.2,9.9c0-1.9,0-3.8,0-5.8
		c-2,0-3.9,0-5.9-0.1c-0.1-0.7-0.2-2.1-0.3-2.8c2,0,4.1,0,6.2,0c-0.1-1.7-0.1-3.4-0.2-5.1c-1.9-0.1-3.8-0.3-5.7-0.4
		c-0.1-0.8-0.2-2.3-0.3-3.1c1.5,0,3.1-0.1,4.7-0.1C704.7,338.9,701.9,337.2,698.8,336.1 M698.8,357c0.2,6.3-0.4,12.7,0.3,19
		c1.1,6.2,7.8,9.6,13.7,8.7c-2.1-2.8-4.2-5.9-4.6-9.5c-0.4-4.4,0-8.8-0.2-13.1C704.3,361.5,701.2,359.7,698.8,357 M711.4,362.1
		c-0.1,1.9-0.1,3.7-0.1,5.6c1.9,0,3.8,0,5.8,0.1c0.1,0.7,0.4,2,0.5,2.7c-2.1,0-4.2,0-6.3,0c0,1.7,0,3.5,0,5.2
		c2.6-0.1,7.5-0.9,6.3,3.4c-1.7,0-3.4,0.1-5.1,0.1c2.1,2.6,4.8,4.6,8.1,5.4c-0.1-4.2,0.1-8.5-0.1-12.7
		C719.9,367.2,716.1,363.2,711.4,362.1z"/>
	<path class="st0" d="M745.5,337.1c1,0,2,0,3,0c0,1.4,0,2.7,0,4.1c-1,0-2,0-3,0C745.5,339.9,745.5,338.5,745.5,337.1z"/>
	<path class="st0" d="M546.2,355.3c1.7-3.7,6-5.4,9.8-5.7c4.1-0.2,8.5-0.2,12.1,1.9c0.1,0.8,0.3,2.3,0.3,3.1
		c-4.9-2.6-11.1-3.3-16.3-1.3c-3.4,1.2-4.4,5.2-3.7,8.3c0.7,2.4,3.1,3.6,5.3,4.5c4.4,1.6,9.4,1.8,13.3,4.8c5.4,4.1,3.2,14-3.2,16
		c-6.1,2-12.9,1.3-18.8-1.1c0-1.3-0.1-2.5-0.1-3.8c5,3.3,11.5,4.4,17.2,2.5c4.3-1.4,6.3-7.5,3.4-11.1c-5.1-4.6-13.2-2.9-18.1-7.8
		C544.8,362.9,544.9,358.6,546.2,355.3z"/>
	<path class="st0" d="M585.1,353.1c6.4-4.8,15.5-4.4,22.5-1c0,0.8,0,2.4,0,3.2c-5.7-3.6-13.3-4.4-19.3-1.1
		c-4.7,2.8-5.7,8.8-5.8,13.9c-0.1,5.5,0.8,12.3,6.1,15.3c5.9,3.1,13.2,2.1,19-0.8c0,1,0,2.1,0,3.1c-7,2.9-15.7,3.5-22.1-1.1
		c-4.9-3.4-5.9-10-6-15.5C579.5,363.4,580.3,356.8,585.1,353.1z"/>
	<path class="st0" d="M619.8,356.7c3.8-7,13.4-8.8,20.3-5.8c6.6,3.4,7.9,11.5,7.8,18.2c-9.3,0-18.6,0-27.9,0
		c0.2,5.1,0.8,11.3,5.7,14c6.5,3.9,14.5,1.8,20.9-1.1c-0.1,0.8-0.3,2.2-0.3,3c-5.9,2.7-12.9,3.8-19.1,1.8c-5.2-1.7-8.7-6.8-9.6-12
		C616.6,368.8,616.8,362.2,619.8,356.7 M625.5,354.5c-3.9,2.6-4.7,7.7-5.4,12c8.3,0,16.5,0,24.8,0c-0.3-3.8-0.6-8.1-3.4-11
		C637.5,351,630.2,351.5,625.5,354.5z"/>
	<path class="st0" d="M663.5,357.1c3.3-6.5,12-9.6,18.6-6.3c4.4,2.3,6,7.5,6.1,12.2c0.2,8,0,16,0.1,24c-0.8,0-2.3,0-3,0
		c-0.1-8,0.1-15.9-0.1-23.9c-0.2-3.8-1-8.5-5-10.2c-6.6-2.6-15.6,1.6-16.2,9.1c-0.8,8.3-0.3,16.6-0.3,24.9c-0.8,0-2.3,0.1-3.1,0.2
		c0-12.2,0-24.5,0-36.7c0.8,0,2.3,0,3,0C663.6,352.6,663.5,354.9,663.5,357.1z"/>
	<path class="st0" d="M771.4,351.6c5-1.9,11.4-1.4,15.4,2.6c3.9,3.9,5.4,9.5,5.5,14.9c0.1,5.7-1.1,11.8-5.1,16
		c-5.5,5.8-16.1,5.3-21-1.1c-4.1-5.3-4.7-12.5-3.8-19C763,359.4,766,353.8,771.4,351.6 M773.5,353.7c-5,1.8-7.6,7.1-8.2,12.1
		c-0.6,5.6-0.2,11.9,3.3,16.5c3.7,4.8,11.5,5.4,15.9,1.2c3.8-3.7,4.8-9.4,4.7-14.5c-0.1-4.8-1.3-10-5.1-13.3
		C781.3,353.1,777.1,352.6,773.5,353.7z"/>
	<path class="st0" d="M745.5,351.4c0.8,0,2.3,0,3,0c0,12.2,0,24.4,0,36.6c-0.8,0-2.3,0-3,0C745.5,375.8,745.5,363.6,745.5,351.4z"/>
	<path class="st0" d="M538.4,386.9c-5.95-12-11.9-24-17.85-36.01c-5.82,12-11.64,24-17.45,36.01l17.6-54.6L538.4,386.9z"/>
	<path class="st0" d="M527.5,375.3c-2.23-2.96-4.46-5.92-6.69-8.87c-2.27,2.96-4.54,5.92-6.81,8.87l6.8-13.3L527.5,375.3z"/>
</g>
</svg>
